<?xml version="1.0" standalone="no"?>
<!DOCTYPE svg PUBLIC "-//W3C//DTD SVG 20010904//EN"
 "http://www.w3.org/TR/2001/REC-SVG-20010904/DTD/svg10.dtd">
<svg version="1.0" xmlns="http://www.w3.org/2000/svg"
 width="296.000000pt" height="170.000000pt" viewBox="0 0 296.000000 170.000000"
 preserveAspectRatio="xMidYMid meet">
<metadata>
Created by potrace 1.16, written by Peter Selinger 2001-2019
</metadata>
<g transform="translate(0.000000,170.000000) scale(0.100000,-0.100000)"
fill="#000000" stroke="none">
<path d="M1811 1596 c-41 -16 -65 -57 -56 -94 l7 -27 10 25 c5 13 16 32 25 42
15 16 17 16 35 -8 11 -14 23 -23 25 -20 3 3 14 1 24 -5 15 -7 17 -6 13 6 -10
24 6 18 37 -16 l29 -31 0 40 c0 78 -69 118 -149 88z"/>
<path d="M690 1568 c-21 -28 -29 -121 -12 -132 5 -3 9 8 9 24 0 16 6 36 13 45
12 14 15 14 36 0 26 -17 107 -29 98 -14 -3 5 6 4 20 -3 18 -7 26 -19 27 -37 1
-26 1 -26 10 3 12 42 -8 113 -37 132 -15 11 -42 14 -83 12 -53 -3 -64 -7 -81
-30z"/>
<path d="M284 1578 c-40 -19 -54 -89 -35 -173 6 -27 8 -24 13 23 3 29 10 58
15 63 14 14 131 18 142 5 5 -6 13 -29 17 -51 l8 -40 8 45 c4 25 5 57 2 73 -11
50 -112 83 -170 55z"/>
<path d="M636 1248 c-23 -21 -83 -149 -68 -146 4 1 19 -4 34 -12 25 -12 29
-11 45 9 17 21 18 16 18 -166 0 -360 6 -502 20 -510 9 -6 14 -40 17 -121 1
-61 0 -112 -4 -112 -10 0 -38 -30 -38 -41 0 -5 23 -9 50 -9 55 0 68 19 30 42
-18 12 -20 24 -20 119 0 85 3 109 16 120 8 7 13 21 11 31 -3 10 -1 16 4 12 5
-3 10 44 10 110 2 146 1 141 19 141 22 0 29 -69 32 -337 l3 -238 45 0 45 0 -3
312 c-3 302 -4 314 -24 335 -18 20 -19 23 -5 29 30 11 40 71 34 193 -4 88 -3
111 5 94 12 -25 29 -29 57 -13 16 8 17 16 10 57 -12 65 -28 102 -50 113 -30
16 -75 11 -94 -10 -11 -12 -31 -20 -50 -20 -19 0 -39 8 -50 20 -24 26 -68 25
-99 -2z"/>
<path d="M1190 1035 c0 -2 12 -11 28 -19 15 -8 23 -15 17 -15 -5 -1 -16 3 -24
8 -22 14 -44 2 -30 -15 7 -8 7 -14 1 -14 -5 0 -15 6 -21 14 -10 11 -8 17 6 25
10 6 14 10 8 11 -21 0 -38 -18 -31 -35 5 -15 4 -16 -9 -5 -8 7 -15 19 -15 26
0 8 -4 14 -10 14 -5 0 -10 -12 -10 -26 0 -14 4 -23 10 -19 22 14 8 -14 -15
-29 -31 -20 -32 -40 -3 -60 16 -11 25 -12 34 -5 8 6 19 9 26 6 9 -4 8 -6 -3
-6 -25 -1 -49 -46 -48 -88 0 -30 2 -34 8 -18 7 15 9 12 9 -17 0 -21 -4 -35 -9
-32 -5 3 -8 -31 -8 -78 2 -67 3 -75 9 -43 l7 40 2 -42 c0 -24 -3 -43 -9 -43
-5 0 -10 -14 -10 -31 0 -24 3 -30 16 -25 9 3 22 6 30 6 10 0 14 13 14 46 0 25
4 53 9 63 5 9 11 58 12 109 3 96 12 118 13 31 1 -33 6 -53 16 -59 13 -8 12
-10 -2 -10 -10 0 -18 -7 -18 -16 0 -8 4 -13 8 -10 17 10 67 -11 64 -27 -1 -8
2 -18 8 -22 5 -3 10 -28 10 -56 0 -46 2 -49 25 -49 23 0 25 4 27 53 3 102 1
98 53 103 25 2 35 -1 32 -9 -3 -7 4 -26 14 -44 13 -21 18 -43 15 -67 -4 -30
-1 -36 14 -36 18 0 19 -12 22 -190 l3 -190 -77 0 c-63 0 -78 -3 -78 -15 0 -12
16 -15 84 -15 l85 0 0 293 c1 194 -2 287 -9 277 -8 -12 -10 -11 -10 8 0 13 4
20 10 17 6 -3 10 -1 10 4 0 6 -4 11 -10 11 -5 0 -10 4 -10 9 0 4 12 7 28 5 15
-2 33 1 41 5 21 13 2 33 -25 27 -18 -5 -24 -2 -25 11 -1 12 -4 10 -9 -7 l-8
-25 -1 28 c-1 15 4 27 9 27 6 0 10 9 10 20 0 11 -4 20 -10 20 -5 0 -7 7 -4 15
4 9 -3 19 -20 26 -27 12 -34 33 -16 44 6 3 10 -3 10 -14 0 -12 4 -21 10 -21 5
0 7 6 4 14 -3 8 0 17 7 21 9 6 10 1 7 -19 -6 -30 3 -34 23 -9 10 11 10 14 2 9
-9 -4 -13 -1 -13 9 0 11 5 15 15 11 13 -5 14 -2 5 15 -9 16 -14 18 -26 8 -11
-9 -14 -8 -14 4 0 9 5 19 10 22 13 8 13 42 0 50 -6 4 -9 3 -8 -2 5 -15 -6 -14
-44 1 -21 9 -43 16 -50 15 -7 0 3 -7 22 -15 l35 -14 -34 6 c-29 5 -33 4 -28
-10 4 -9 2 -16 -2 -16 -5 0 -18 -3 -28 -7 -16 -6 -16 -5 -4 10 12 16 12 17 -5
10 -10 -3 -22 -11 -25 -16 -4 -5 -16 -4 -29 3 -16 9 -25 9 -33 1 -14 -14 -57
-14 -57 0 0 6 7 8 16 5 24 -9 35 3 21 24 -10 17 -47 29 -47 15z"/>
<path d="M2539 848 c-13 -56 -8 -336 11 -558 6 -74 6 -118 0 -124 -17 -17 -11
-21 34 -22 41 0 44 1 35 19 -16 29 13 557 31 557 13 0 29 -532 17 -560 -6 -12
1 -15 33 -17 38 -2 40 -1 34 21 -3 13 2 97 10 187 34 360 31 549 -9 549 -27 0
-45 -13 -45 -31 0 -25 -28 -36 -49 -20 -36 26 -76 51 -83 51 -3 0 -12 -23 -19
-52z"/>
<path d="M2150 478 c0 -174 -3 -323 -6 -332 -5 -13 3 -16 51 -16 51 0 56 2 49
18 -8 18 -6 183 5 427 5 118 9 140 22 143 15 3 18 -19 24 -190 11 -283 11
-361 1 -380 -7 -16 -2 -18 49 -18 48 0 56 3 51 16 -3 9 -6 158 -6 332 l0 317
-120 0 -120 0 0 -317z"/>
<path d="M224 753 c3 -21 6 -97 6 -169 l0 -130 44 0 45 1 7 118 c5 85 10 117
19 117 18 0 25 -94 28 -347 l2 -203 45 0 45 0 4 325 3 325 -127 0 -128 0 7
-37z"/>
<path d="M1063 570 c2 -122 -1 -160 -10 -160 -15 0 -18 -37 -3 -42 5 -1 9 -14
9 -28 -6 -176 -3 -235 11 -235 12 0 15 18 14 105 0 58 -1 196 -2 307 -1 118
-6 204 -11 208 -6 3 -9 -53 -8 -155z"/>
</g>
</svg>
