<?xml version="1.0" standalone="no"?>
<!DOCTYPE svg PUBLIC "-//W3C//DTD SVG 20010904//EN"
 "http://www.w3.org/TR/2001/REC-SVG-20010904/DTD/svg10.dtd">
<svg version="1.0" xmlns="http://www.w3.org/2000/svg"
 width="310.000000pt" height="163.000000pt" viewBox="0 0 310.000000 163.000000"
 preserveAspectRatio="xMidYMid meet">
<metadata>
Created by potrace 1.16, written by Peter Selinger 2001-2019
</metadata>
<g transform="translate(0.000000,163.000000) scale(0.100000,-0.100000)"
fill="#000000" stroke="none">
<path d="M2562 1308 c-7 -7 -11 -26 -11 -42 1 -17 3 -23 6 -13 3 10 14 17 28
17 49 0 51 -5 48 -97 -1 -48 -7 -91 -12 -96 -15 -15 -45 1 -65 34 -17 29 -17
31 0 43 12 9 15 20 10 39 -3 15 -10 27 -15 27 -17 0 -30 -51 -25 -93 3 -23 2
-59 -4 -78 -7 -27 -6 -42 5 -64 9 -16 13 -41 10 -60 l-5 -32 51 -7 c98 -11 94
-13 101 57 4 34 7 76 6 92 0 17 -1 53 -1 80 0 59 -21 146 -43 181 -18 26 -63
33 -84 12z"/>
<path d="M2294 1273 c-13 -12 -24 -31 -24 -43 0 -11 -4 -20 -9 -20 -5 0 -3
-18 5 -40 8 -21 17 -57 20 -80 7 -40 18 -51 27 -27 3 6 6 4 6 -7 1 -17 3 -18
19 -4 9 8 25 18 35 21 9 4 17 11 17 17 0 6 -11 3 -26 -6 -32 -21 -56 -5 -33
22 11 14 11 18 1 22 -24 8 -44 35 -39 54 3 10 1 16 -4 12 -5 -3 -9 -1 -9 5 0
16 20 23 34 12 7 -6 21 -9 30 -5 11 4 16 1 16 -12 1 -22 38 -68 60 -76 8 -3
25 -2 38 3 28 11 29 43 1 119 l-21 57 -60 -1 c-47 -1 -65 -6 -84 -23z"/>
<path d="M1294 1180 c-16 -6 -20 -15 -17 -34 4 -21 2 -25 -11 -20 -12 5 -16 0
-16 -19 0 -14 -6 -28 -12 -30 -10 -4 -10 -6 0 -6 22 -2 14 -64 -12 -94 l-24
-28 -22 58 c-12 32 -19 68 -17 80 2 13 0 23 -5 23 -5 0 -6 5 -3 10 8 13 2 13
-42 -5 -40 -16 -47 -25 -95 -110 -15 -27 -28 -44 -28 -37 0 6 -9 12 -20 12
-14 0 -20 -7 -20 -21 0 -16 5 -20 19 -16 16 4 19 -4 25 -66 7 -76 14 -96 26
-77 13 21 32 -1 28 -31 -3 -16 -1 -29 2 -29 4 0 5 -11 2 -25 l-4 -25 153 0
c128 0 155 -3 171 -17 16 -14 18 -14 18 0 0 8 3 22 6 31 4 10 1 16 -9 16 -19
0 -26 19 -20 53 7 37 33 35 33 -2 0 -16 5 -42 10 -56 6 -15 17 -88 26 -163 12
-102 20 -139 32 -149 11 -8 12 -12 5 -13 -7 0 -13 -9 -13 -20 0 -13 9 -22 28
-26 15 -3 33 -7 40 -10 14 -4 17 33 2 38 -6 2 -12 100 -15 243 -3 132 -7 301
-9 375 -2 74 0 145 5 158 7 19 5 24 -17 32 -37 14 -40 13 -54 -20 -10 -24 -15
-28 -26 -19 -11 9 -17 9 -28 0 -11 -9 -16 -5 -26 19 -13 31 -28 35 -66 20z"/>
<path d="M842 818 c1 -93 2 -97 8 -43 7 67 9 59 19 -128 4 -80 11 -131 18
-135 7 -4 30 -6 53 -4 l40 4 0 67 c0 36 -5 95 -10 131 -11 78 -23 180 -23 198
0 8 -18 12 -54 12 l-53 0 2 -102z"/>
<path d="M1844 823 c-19 -111 -36 -178 -45 -181 -33 -12 -41 -36 -35 -111 9
-120 17 -161 31 -161 7 0 15 -5 17 -12 3 -7 26 -13 54 -14 68 -3 77 -6 94 -31
34 -48 72 -68 130 -68 68 0 114 29 141 89 23 51 24 94 3 146 -9 22 -14 46 -11
54 4 9 -3 16 -21 19 -15 3 -38 9 -51 13 -17 5 -22 4 -17 -4 5 -9 -8 -12 -46
-11 -29 1 -43 4 -30 6 23 5 42 37 42 74 0 17 -6 20 -37 17 -34 -3 -37 -6 -47
-48 -10 -39 -14 -45 -39 -46 -22 -1 -23 -1 -3 3 20 3 25 12 30 54 l7 49 46 0
c25 0 44 2 41 5 -3 3 -59 6 -126 7 l-120 2 5 93 c6 95 -1 124 -13 56z m216
-323 c0 -16 -4 -40 -10 -54 -5 -15 -6 -26 0 -26 5 0 12 -9 15 -21 10 -30 50
-22 50 11 0 19 -6 26 -23 28 -19 3 -23 8 -18 25 3 12 6 32 6 45 0 18 6 22 29
22 26 0 29 -4 35 -41 4 -22 4 -44 1 -50 -4 -5 1 -9 10 -9 13 0 15 8 9 53 -4
35 -3 49 4 42 5 -5 12 -19 15 -30 4 -16 5 -16 6 5 1 25 1 25 20 -6 20 -32 26
-64 22 -119 -1 -25 -3 -27 -12 -12 -11 18 -49 24 -49 6 0 -5 5 -7 10 -4 6 3
10 -1 10 -9 0 -9 5 -16 10 -16 17 0 11 -20 -14 -45 -51 -51 -133 -51 -188 2
-33 32 -36 49 -8 58 11 3 20 11 20 16 0 6 -7 6 -19 -1 -34 -18 -41 -11 -41 35
0 49 25 109 41 100 5 -4 9 -3 8 2 -3 17 2 20 31 21 27 1 30 -3 30 -28z"/>
<path d="M2214 843 c-29 -14 -31 -18 -26 -62 2 -26 0 -63 -6 -84 -10 -36 -10
-37 16 -38 26 -1 26 -1 -3 -8 -23 -5 -31 -12 -33 -34 -2 -15 1 -27 7 -27 6 0
11 11 11 25 0 18 4 23 15 19 8 -4 15 -17 15 -29 0 -13 4 -26 9 -29 5 -3 12 31
15 77 16 194 30 178 45 -50 7 -98 13 -191 14 -208 4 -56 56 -43 57 14 0 30 7
25 12 -9 4 -30 15 -40 47 -40 l24 0 -6 101 c-3 69 -1 116 8 148 18 63 26 134
17 146 -4 6 -18 12 -32 13 -14 2 -29 7 -33 11 -4 5 -20 6 -35 3 l-27 -6 25 -7
c20 -5 16 -7 -17 -6 -31 0 -43 5 -46 18 -3 9 -19 20 -37 24 l-33 7 32 20 c17
11 31 22 31 24 0 9 -37 2 -66 -13z"/>
<path d="M1666 804 c-3 -26 -6 -76 -6 -111 l0 -64 42 3 c48 3 50 7 63 144 l7
74 -50 0 -49 0 -7 -46z"/>
<path d="M800 766 l0 -33 -77 -8 c-43 -3 -91 -7 -108 -8 l-30 -2 0 -82 c0 -46
2 -84 5 -84 66 -17 87 -5 94 53 8 59 24 54 33 -11 5 -39 7 -41 39 -41 30 0 34
-3 34 -25 0 -18 5 -25 20 -25 25 0 27 5 35 98 5 61 4 72 -9 72 -10 0 -16 9
-16 23 0 17 -2 19 -10 7 -6 -9 -7 5 -3 43 3 31 3 57 -1 57 -3 0 -6 -15 -6 -34z"/>
<path d="M249 663 c-13 -16 -12 -17 3 -5 14 12 21 11 42 -5 24 -17 37 -41 16
-28 -6 4 -5 -5 2 -19 6 -15 9 -28 6 -31 -9 -10 -35 6 -47 28 -9 18 -10 11 -5
-33 7 -61 15 -71 57 -68 21 2 29 9 33 28 3 14 9 34 13 45 7 17 10 13 20 -22
11 -40 14 -43 46 -43 33 0 35 2 36 33 0 17 2 40 4 50 3 17 2 17 -14 3 -33 -30
-58 -9 -28 23 10 12 8 13 -8 7 -15 -4 -14 -1 7 17 l27 22 -37 -3 c-62 -6 -127
-2 -130 9 -6 15 -28 10 -43 -8z"/>
<path d="M1055 618 c2 -29 4 -58 4 -65 1 -8 37 -11 131 -10 l130 2 0 47 c0 25
3 53 6 62 5 14 -10 16 -134 16 l-141 0 4 -52z"/>
<path d="M1743 327 c-37 -25 -41 -37 -14 -44 12 -3 17 -11 14 -20 -5 -12 7
-14 71 -12 48 1 81 -2 88 -9 29 -29 68 4 50 41 -9 18 -11 19 -11 5 -1 -22 -21
-24 -21 -2 0 11 -6 14 -20 9 -11 -4 -20 -2 -20 4 0 6 -9 11 -20 11 -11 0 -28
9 -37 20 -22 25 -39 24 -80 -3z"/>
</g>
</svg>
