<?xml version="1.0" standalone="no"?>
<!DOCTYPE svg PUBLIC "-//W3C//DTD SVG 20010904//EN"
 "http://www.w3.org/TR/2001/REC-SVG-20010904/DTD/svg10.dtd">
<svg version="1.0" xmlns="http://www.w3.org/2000/svg"
 width="1620.000000pt" height="1080.000000pt" viewBox="0 0 1620.000000 1080.000000"
 preserveAspectRatio="xMidYMid meet">
<metadata>
Created by potrace 1.16, written by Peter Selinger 2001-2019
</metadata>
<g transform="translate(0.000000,1080.000000) scale(0.100000,-0.100000)"
fill="#000000" stroke="none">
<path d="M8366 9560 c-52 -16 -84 -58 -100 -133 -6 -24 -10 -26 -33 -21 -23 6
-25 4 -20 -15 4 -17 1 -21 -19 -21 -33 0 -31 -28 2 -36 20 -5 24 -11 20 -28
-24 -80 -28 -127 -17 -172 16 -63 44 -100 94 -125 53 -27 50 -24 38 -47 -15
-29 8 -45 53 -36 30 5 36 3 36 -10 0 -12 7 -16 28 -14 l27 3 3 -107 3 -108
-30 0 c-45 0 -213 -37 -299 -66 -172 -57 -229 -99 -530 -382 -106 -100 -210
-194 -232 -209 -22 -15 -40 -36 -40 -46 0 -37 127 -452 146 -476 6 -7 68 23
152 76 47 29 86 52 88 51 2 -3 -19 -627 -32 -949 l-7 -166 64 -21 c74 -24 175
-45 307 -63 102 -14 106 -19 71 -75 -50 -81 -161 -151 -311 -195 -43 -13 -78
-27 -78 -31 0 -12 13 -10 88 11 152 42 290 137 334 231 l17 35 243 0 c134 1
290 4 348 9 l106 8 38 -65 c77 -132 230 -252 359 -281 48 -11 29 12 -24 29
-118 39 -229 129 -309 250 -22 33 -40 63 -40 67 0 4 21 10 48 13 101 14 280
46 333 61 l56 16 7 201 7 202 44 38 c77 67 148 146 223 250 39 56 72 106 72
111 0 12 2 15 -60 -74 -179 -254 -332 -375 -453 -356 -219 35 -391 341 -482
861 -17 91 -25 112 -97 241 -43 77 -78 146 -78 152 0 24 26 11 62 -30 20 -24
39 -40 42 -37 4 3 -7 35 -24 70 -29 63 -39 119 -21 119 14 0 58 -60 76 -103 8
-20 20 -37 25 -37 13 0 13 7 -4 66 -25 88 -29 124 -12 124 14 0 29 -35 56
-123 7 -21 14 -36 17 -33 3 3 6 35 7 72 2 108 36 87 52 -31 4 -27 11 -61 16
-74 11 -30 26 -18 58 44 38 73 51 52 31 -52 -5 -26 -15 -80 -22 -120 l-12 -71
150 -244 c182 -295 179 -289 203 -385 15 -62 18 -68 13 -28 -3 28 -14 74 -24
104 -11 30 -19 57 -19 61 0 4 83 112 185 239 102 128 185 235 185 238 0 3 -11
18 -25 35 -14 16 -25 35 -25 42 0 38 154 196 191 196 25 0 -2 25 -119 108
-321 228 -513 320 -789 378 l-83 17 0 42 c0 41 2 43 45 59 52 20 86 57 110
120 25 65 17 222 -15 290 l-23 50 23 18 c31 25 37 84 11 125 -25 40 -106 82
-173 90 -37 4 -46 8 -34 15 23 13 20 45 -5 59 -34 18 -113 5 -159 -25 -43 -28
-62 -33 -55 -13 11 30 -32 50 -79 37z m372 -337 c26 3 56 8 68 12 18 6 24 -1
45 -47 19 -44 24 -70 24 -148 0 -82 -4 -102 -25 -145 -34 -68 -77 -95 -150
-95 -40 0 -71 7 -107 25 -67 34 -133 105 -133 144 0 16 -7 34 -15 41 -38 31
-2 75 52 64 20 -4 33 -1 42 10 13 15 11 64 -3 97 -5 12 -1 18 18 23 15 4 31
15 38 25 11 17 14 18 55 4 28 -10 62 -13 91 -10z m-188 -388 c50 -33 106 -55
144 -55 16 0 18 -7 14 -60 -5 -73 -26 -99 -86 -107 -56 -7 -101 12 -117 51
-11 25 -19 206 -10 206 2 0 26 -16 55 -35z"/>
<path d="M12695 9305 c-22 -8 -57 -32 -78 -56 l-37 -42 -51 28 c-71 38 -144
37 -262 -3 -108 -37 -158 -69 -194 -124 -25 -38 -28 -50 -27 -127 0 -47 5
-134 11 -193 13 -135 37 -188 99 -224 45 -26 45 -27 42 -77 -3 -48 -5 -51 -37
-59 -43 -12 -36 -19 9 -9 35 7 35 7 38 64 l3 57 42 0 c42 0 138 38 151 59 17
28 25 4 28 -81 l3 -91 53 -18 c28 -10 52 -14 52 -10 0 4 -21 14 -47 22 l-48
15 0 78 0 78 57 18 c77 24 131 69 165 138 25 51 28 67 28 157 -1 102 -1 105
-62 243 -4 10 5 13 38 10 42 -3 45 -6 68 -52 22 -44 25 -66 31 -227 6 -144 10
-183 24 -204 24 -37 80 -58 131 -50 40 6 43 4 48 -22 14 -70 92 -123 192 -130
52 -4 68 -1 114 24 72 37 96 71 94 131 -4 125 -19 218 -40 253 -39 63 -139
119 -211 119 -59 0 -84 27 -132 141 -47 111 -89 162 -140 173 -51 10 -111 6
-155 -9z m-376 -320 c10 -28 21 -58 26 -67 6 -15 2 -18 -21 -19 -29 0 -29 0 6
-12 25 -9 45 -28 72 -69 35 -53 40 -57 62 -47 35 16 68 -4 64 -39 -2 -19 -13
-32 -37 -44 -19 -9 -53 -35 -75 -56 -150 -145 -325 -85 -343 116 -9 103 31
228 76 238 14 3 51 16 81 29 30 13 59 23 63 22 5 -2 17 -25 26 -52z"/>
<path d="M10087 8846 c-24 -25 -54 -66 -68 -93 -13 -26 -30 -56 -38 -65 -16
-20 -16 -92 0 -184 13 -77 54 -139 107 -161 41 -17 51 -28 47 -52 -2 -9 -4
-19 -4 -23 -1 -5 -27 -8 -58 -9 -32 -1 -69 -5 -83 -9 -22 -7 -20 -8 15 -9 22
0 64 2 93 5 l52 7 0 37 c0 36 2 38 38 45 44 8 108 39 140 68 l22 20 0 -77 c0
-52 4 -78 13 -81 26 -8 198 -12 190 -4 -4 4 -46 9 -93 11 l-85 3 -3 84 c-2 46
1 87 6 90 14 10 55 82 49 87 -3 3 -17 -12 -31 -34 -14 -22 -42 -57 -63 -77
-146 -142 -321 -90 -340 101 l-6 57 26 -7 c35 -8 76 12 83 41 5 19 12 23 33
21 22 -3 26 -7 23 -31 -4 -34 31 -77 63 -77 36 0 65 28 65 64 0 50 -23 64
-102 63 -57 -1 -72 3 -91 21 -13 12 -33 22 -45 22 -12 0 -22 5 -22 10 0 26 42
90 89 133 27 26 44 47 36 47 -8 0 -34 -20 -58 -44z"/>
<path d="M4495 8723 c32 -84 30 -205 -5 -274 -63 -123 -247 -100 -346 42 -16
23 -30 36 -32 30 -2 -6 6 -24 17 -40 17 -23 21 -44 21 -104 l0 -74 -96 -6
c-87 -6 -115 -11 -103 -20 2 -1 50 -1 107 1 l102 4 0 74 c0 41 3 74 8 74 4 0
27 -13 52 -30 24 -16 66 -35 92 -41 45 -12 48 -15 48 -46 0 -19 6 -35 13 -38
31 -9 179 -16 173 -7 -3 5 -42 13 -86 16 -79 7 -80 8 -80 34 0 23 8 31 43 47
46 22 81 67 97 124 15 53 12 176 -4 216 -15 35 -34 51 -21 18z"/>
<path d="M6391 8634 c-54 -141 -6 -315 97 -355 18 -7 22 -16 22 -54 0 -32 -5
-47 -15 -50 -8 -3 -22 -7 -31 -10 -30 -10 -7 -16 30 -10 l36 7 0 54 0 54 34 0
c41 0 108 23 146 50 15 11 31 20 34 20 3 0 6 -40 6 -88 l0 -89 55 -15 c31 -9
58 -12 60 -7 5 7 -55 29 -82 29 -21 0 -18 188 4 212 28 31 -2 20 -33 -13 -72
-76 -208 -108 -279 -66 -89 54 -119 211 -64 336 22 50 22 51 10 51 -4 0 -18
-25 -30 -56z"/>
<path d="M6190 8155 c-7 -8 -21 -15 -31 -15 -10 0 -23 -9 -29 -20 -6 -11 -17
-20 -25 -20 -8 0 -20 -8 -27 -18 -7 -11 -23 -24 -35 -31 -35 -18 -29 -55 17
-105 45 -49 74 -61 94 -41 8 8 27 13 42 12 21 -1 31 4 39 21 6 13 19 22 32 22
22 0 23 4 23 69 0 54 -5 75 -23 102 -25 38 -57 48 -77 24z"/>
<path d="M5443 7979 c-35 -17 -48 -32 -72 -81 -16 -34 -31 -55 -35 -49 -12 18
-36 12 -36 -9 0 -15 -7 -20 -25 -20 -15 0 -25 -6 -25 -15 0 -8 11 -17 25 -21
14 -3 25 -7 25 -8 0 0 -11 -28 -25 -61 -46 -112 -25 -218 55 -271 29 -19 39
-32 34 -43 -16 -39 -10 -46 37 -49 37 -2 48 -7 52 -23 4 -16 11 -18 31 -13 23
5 26 3 27 -22 0 -16 3 -23 6 -16 4 10 19 1 51 -30 41 -39 40 -37 -10 20 -57
64 -62 78 -71 187 -2 30 -2 30 53 30 49 0 56 3 67 27 10 19 10 34 3 53 -15 39
-13 45 15 45 14 0 32 9 41 19 16 18 17 18 58 0 85 -38 222 -16 251 42 45 86
-25 177 -163 214 -35 9 -43 14 -29 20 24 10 21 41 -5 59 -32 23 -94 19 -163
-9 -33 -14 -61 -25 -62 -25 0 0 1 10 4 21 7 25 -19 49 -51 49 -12 0 -40 -9
-63 -21z"/>
<path d="M13410 7927 c0 -5 14 -29 31 -53 174 -253 214 -638 103 -979 -46
-140 -167 -354 -201 -355 -6 0 -14 -13 -18 -29 -3 -15 -20 -41 -36 -57 -28
-27 -36 -29 -107 -29 -69 0 -79 -2 -96 -23 -26 -33 -77 -27 -90 10 -12 35 8
59 84 99 30 16 44 27 30 23 -41 -11 -98 -42 -112 -62 -7 -10 -23 -24 -36 -31
-19 -10 -28 -10 -48 4 -13 8 -24 22 -24 29 0 28 44 67 113 101 40 19 66 35 59
35 -16 0 -107 -45 -145 -73 l-29 -20 -21 22 c-20 20 -21 23 -7 48 22 39 60 63
131 83 35 10 54 19 42 19 -31 1 -126 -35 -158 -61 -24 -18 -28 -19 -42 -6 -13
14 -13 19 1 46 15 29 100 81 135 83 11 0 10 3 -4 8 -18 7 -18 9 8 26 21 13 37
16 65 10 77 -14 74 -16 99 65 55 172 66 393 28 541 -17 67 -83 214 -92 206 -2
-3 11 -38 30 -79 87 -186 95 -388 25 -650 l-21 -77 -63 6 c-61 6 -64 5 -94
-26 -18 -17 -44 -38 -59 -45 -66 -35 -97 -92 -67 -125 16 -17 15 -19 -11 -29
-91 -37 -380 -94 -567 -113 -160 -16 -370 2 -467 40 -15 5 -29 8 -31 6 -2 -3
-1 -33 3 -67 5 -35 13 -108 19 -163 6 -55 20 -179 31 -275 l21 -175 162 -325
c183 -367 243 -495 410 -868 l46 -103 -17 -42 c-54 -138 -203 -296 -357 -378
-36 -19 -46 -29 -46 -49 1 -47 48 -439 55 -449 8 -14 464 -15 485 -1 13 8 15
79 15 542 0 293 -6 648 -12 788 -7 140 -15 381 -18 535 l-6 280 52 -100 c29
-55 74 -149 101 -210 28 -60 58 -128 68 -150 126 -279 305 -785 527 -1495 31
-102 62 -188 68 -192 14 -10 493 -10 499 0 15 25 -234 1140 -416 1862 -75 299
-104 406 -199 753 -22 82 -38 154 -36 161 3 7 19 16 36 19 36 8 58 28 124 120
111 154 168 271 212 430 80 295 43 638 -94 866 -45 74 -70 110 -71 98z"/>
<path d="M3507 7848 c-82 -219 -122 -506 -88 -628 31 -108 126 -184 282 -227
97 -27 407 -24 545 4 67 14 121 20 160 16 52 -4 64 -2 97 21 21 14 40 26 43
26 3 0 22 -11 42 -25 43 -29 59 -31 83 -9 18 17 22 12 35 -48 1 -5 2 -39 3
-78 l1 -70 45 0 45 0 0 93 c0 96 -6 115 -73 233 -13 22 -21 46 -19 52 11 34
-51 84 -121 97 -20 4 -37 9 -37 12 0 3 15 26 34 52 42 58 51 85 32 100 -21 18
-69 -9 -141 -81 -75 -75 -129 -107 -192 -115 -100 -11 -422 33 -452 63 -13 12
-13 28 -3 114 7 55 19 130 27 167 17 79 18 94 5 72 -14 -24 -50 -236 -50 -295
l0 -53 -67 4 c-64 4 -65 4 -17 -4 28 -5 73 -16 100 -25 85 -28 202 -46 340
-53 173 -8 196 0 317 113 87 82 127 103 127 67 0 -10 -21 -45 -46 -78 l-45
-60 68 -16 c47 -12 74 -24 90 -43 32 -38 20 -48 -30 -26 -23 11 -60 19 -82 19
l-40 -1 46 -8 c94 -16 159 -63 138 -102 -13 -25 -42 -23 -87 7 -20 13 -53 27
-72 30 l-35 5 35 -11 c47 -15 87 -45 105 -78 12 -24 12 -31 0 -47 -13 -18 -15
-17 -57 12 -56 40 -86 51 -84 28 1 -18 -58 -54 -90 -54 -11 0 -43 12 -70 26
-42 22 -46 23 -31 6 18 -20 18 -20 -35 -31 -234 -47 -467 -50 -608 -7 -135 41
-219 110 -246 202 -35 121 2 405 80 623 9 24 15 46 13 48 -2 2 -11 -16 -20
-39z"/>
<path d="M7343 7568 c124 -285 140 -340 141 -463 0 -107 -17 -147 -92 -222
-129 -127 -358 -208 -670 -235 -73 -6 -135 -8 -139 -5 -3 4 0 13 7 22 7 9 10
18 8 21 -3 3 -14 -6 -24 -19 -30 -37 -69 -58 -112 -59 -48 0 -86 18 -78 38 10
26 -35 -5 -80 -55 -36 -40 -43 -44 -58 -32 -20 17 -20 43 -2 80 17 31 81 91
98 91 6 0 9 3 6 6 -10 9 -61 -22 -93 -56 -54 -57 -95 -62 -95 -12 0 40 45 88
113 122 34 17 51 28 37 24 -50 -13 -68 -23 -102 -53 -36 -31 -48 -31 -48 -1 0
25 47 68 105 97 27 14 52 27 54 29 3 2 -15 21 -40 42 -62 52 -89 83 -89 100 0
24 56 7 136 -43 120 -75 158 -88 233 -82 72 6 309 80 394 123 85 43 107 62
107 93 0 30 -33 134 -70 219 -39 90 -32 51 11 -63 22 -60 43 -123 46 -141 5
-30 2 -35 -43 -63 -62 -40 -227 -104 -351 -137 -140 -38 -173 -30 -339 75 -29
18 -70 35 -93 38 -39 5 -41 4 -41 -20 0 -18 17 -41 60 -80 l59 -55 -64 -36
-64 -35 -55 57 c-30 31 -82 75 -115 97 -33 22 -61 44 -61 49 0 4 23 37 51 73
28 36 49 66 47 68 -2 2 -28 -27 -57 -65 -29 -39 -59 -70 -67 -70 -8 0 -53 9
-99 21 -57 14 -85 26 -88 38 -3 9 -5 5 -6 -10 0 -15 -13 -38 -27 -53 -49 -48
-171 -28 -192 32 -9 27 -13 29 -48 23 -30 -5 -40 -12 -45 -31 -7 -26 -7 -25
-27 35 -6 17 -13 38 -17 48 -5 13 -2 17 14 17 15 0 23 -9 30 -32 5 -18 10 -25
10 -15 1 10 -4 27 -10 38 -9 17 -17 19 -57 14 -26 -4 -58 -12 -71 -18 -22 -11
-28 -7 -83 53 -85 93 -114 141 -127 211 -7 33 -15 58 -18 56 -9 -10 18 -111
42 -152 13 -22 49 -68 80 -103 47 -52 55 -65 45 -77 -7 -8 -23 -15 -37 -15
-28 0 -45 -34 -32 -68 5 -13 9 -25 9 -27 0 -2 -21 -15 -47 -30 -27 -15 -60
-39 -75 -53 l-28 -26 -82 82 c-45 45 -84 82 -87 82 -3 0 32 -38 78 -84 l84
-84 -32 -40 c-83 -105 -127 -298 -146 -630 l-6 -112 25 -10 c24 -9 25 -14 29
-92 l3 -83 2 93 c2 85 1 92 -17 92 -11 0 -22 4 -25 9 -7 11 22 23 35 15 5 -3
9 -1 9 5 0 24 246 50 353 37 l57 -7 2 -37 1 -37 4 33 c4 31 7 33 36 30 48 -5
47 -32 -3 -54 l-42 -19 6 -80 c6 -90 44 -225 78 -275 13 -19 41 -47 63 -62 91
-62 459 -185 516 -173 17 4 64 7 104 7 86 -1 150 -24 204 -75 19 -18 31 -26
27 -19 -12 20 17 14 57 -13 37 -26 48 -50 25 -58 -7 -2 -10 -7 -7 -11 3 -3 14
0 23 7 28 20 7 49 -59 83 -49 26 -73 54 -45 54 29 0 17 122 -56 546 -19 111
-34 208 -34 215 1 8 24 25 53 39 28 14 54 26 57 28 3 1 16 -60 29 -135 28
-158 72 -341 95 -395 11 -26 49 -65 123 -125 172 -142 180 -150 166 -164 -7
-7 -13 -18 -13 -23 0 -6 10 2 23 17 23 29 50 30 61 1 8 -21 -17 -75 -47 -103
-42 -38 -74 -11 -46 41 6 11 9 22 6 24 -2 3 -11 -10 -20 -28 -17 -35 -8 -68
18 -68 9 0 15 -10 15 -25 0 -25 32 -51 49 -40 5 3 12 -4 16 -14 9 -28 39 -35
74 -17 17 9 36 16 44 16 13 0 77 60 77 72 0 3 -15 -9 -34 -28 -30 -30 -64 -47
-54 -26 2 4 14 28 26 55 24 50 31 54 50 35 9 -9 12 -9 12 0 0 7 -8 16 -17 19
-10 4 -26 17 -36 30 -10 13 -28 23 -39 23 -14 0 -18 5 -14 15 3 8 2 14 -2 13
-15 -3 -62 15 -73 28 -6 8 -21 14 -33 14 -12 0 -31 7 -41 15 -96 71 -187 147
-231 189 -41 41 -55 63 -69 111 -23 81 -52 215 -79 367 -21 115 -21 130 -8
149 19 27 18 63 -4 148 -18 68 -18 68 5 99 l22 32 39 -20 c49 -25 96 -25 135
-2 23 15 61 20 164 26 323 17 571 101 712 241 102 101 121 203 74 391 -16 60
-39 134 -52 164 -55 126 -67 150 -76 150 -5 0 -7 -6 -4 -12z"/>
<path d="M11196 6779 c-62 -211 -190 -491 -257 -564 -51 -55 -125 -88 -191
-83 -55 3 -57 1 -97 -94 -22 -54 -42 -61 -67 -23 -24 37 -2 114 50 175 l21 25
-29 -25 c-15 -14 -40 -51 -53 -82 -26 -59 -53 -79 -77 -58 -38 31 -13 106 62
184 39 41 42 45 15 27 -34 -23 -93 -100 -93 -122 0 -9 -4 -8 -15 1 -33 27 -5
100 64 164 17 17 31 33 31 36 0 4 -19 13 -42 20 -83 24 -144 62 -132 82 8 13
103 9 169 -7 33 -8 78 -14 100 -14 l40 2 -45 7 c-25 4 -86 15 -136 24 -66 12
-99 14 -118 7 -54 -21 -20 -62 84 -101 l60 -22 -34 -39 c-62 -68 -85 -141 -52
-168 12 -10 11 -19 -5 -61 -27 -71 -22 -128 14 -151 9 -6 -133 -406 -215 -609
-21 -50 -140 -368 -177 -470 -21 -58 -88 -238 -149 -400 -61 -162 -174 -464
-251 -670 -218 -582 -206 -554 -232 -560 -19 -5 -29 -24 -57 -100 -19 -52 -36
-102 -38 -110 -4 -11 12 -21 58 -38 35 -12 66 -22 70 -22 3 0 25 47 47 105 34
89 39 109 29 129 -9 20 -7 35 10 78 11 29 85 229 165 443 158 423 350 935 397
1055 16 41 65 174 110 295 45 121 97 258 115 305 18 47 70 185 115 308 79 212
85 224 116 237 40 16 58 43 85 126 33 100 32 99 95 99 63 0 110 17 164 60 50
40 91 105 157 253 56 124 157 411 151 429 -2 6 -16 -32 -32 -83z"/>
<path d="M4955 5615 c2 -16 9 -90 15 -162 7 -73 15 -144 18 -158 l7 -26 468 1
c354 0 467 -3 467 -11 0 -7 3 -9 7 -6 3 4 13 2 20 -5 8 -6 41 -12 74 -12 54
-1 59 -3 59 -23 0 -35 1 -37 24 -53 24 -17 75 -20 73 -5 -1 6 4 9 11 7 8 -1
11 2 7 8 -3 5 0 10 7 10 7 0 26 11 42 25 16 14 32 25 37 25 10 0 29 57 29 86
0 18 4 22 17 17 11 -4 14 -3 9 5 -15 25 -36 13 -36 -21 0 -18 -8 -44 -17 -57
l-17 -24 -7 24 c-6 23 -7 22 -8 -7 -1 -35 -39 -70 -65 -60 -9 4 -17 -2 -21
-14 -9 -28 -49 -25 -63 6 -7 14 -12 36 -12 49 0 22 -2 23 -39 13 -44 -12 -89
2 -124 37 -11 12 -16 15 -12 7 7 -12 -7 -13 -88 -8 -320 21 -671 122 -792 229
-20 17 -50 54 -66 82 -25 44 -28 47 -24 21z"/>
<path d="M5018 5095 c-5 -6 19 -176 27 -183 7 -7 162 18 279 44 168 39 406
119 406 138 0 8 -705 8 -712 1z"/>
<path d="M4690 4774 c-304 -44 -527 -150 -713 -339 -346 -353 -434 -874 -222
-1310 68 -139 122 -218 227 -323 263 -266 635 -387 1003 -327 323 52 593 227
780 505 91 137 136 245 175 429 55 258 -9 592 -156 816 -8 13 -11 25 -7 28 4
2 118 0 252 -5 233 -8 246 -8 304 12 89 31 95 36 90 65 -6 30 -2 29 -54 8 -38
-15 -68 -15 -348 -4 l-306 11 -54 61 c-92 103 -275 229 -416 287 -162 66 -416
106 -555 86z m350 -119 c106 -25 247 -85 329 -140 39 -26 75 -52 80 -59 6 -7
-4 -25 -31 -55 l-41 -43 -241 11 c-231 11 -330 25 -362 51 -12 11 -14 -32 -14
-328 0 -237 -3 -343 -11 -348 -15 -9 -34 13 -128 146 -99 141 -108 153 -265
370 -69 96 -127 180 -128 185 -1 6 -11 17 -22 26 -18 15 -17 17 41 52 126 77
250 122 403 147 84 14 304 5 390 -15z m-780 -352 c130 -181 281 -386 290 -393
13 -11 140 -190 140 -198 0 -4 -6 -21 -12 -36 -12 -26 -16 -27 -63 -23 -257
26 -406 40 -555 52 -336 28 -320 25 -315 49 2 12 7 39 10 61 19 121 90 289
176 415 44 65 195 220 214 219 6 0 57 -65 115 -146z m1048 -38 c2 -2 -76 -99
-175 -216 -98 -116 -195 -234 -216 -260 -66 -86 -67 -84 -67 222 l0 272 228
-7 c125 -5 229 -9 230 -11z m360 -24 c31 -37 98 -161 123 -226 47 -121 71
-239 73 -360 l1 -110 -45 3 c-25 1 -115 10 -200 18 -85 8 -189 17 -230 19 -41
2 -118 9 -170 14 -52 6 -136 13 -186 17 l-92 6 -13 42 c-7 22 -13 44 -14 47 0
4 103 131 229 283 l230 276 140 -6 c113 -5 144 -10 154 -23z m-1687 -576 c10
-7 558 -53 635 -54 40 -1 42 -3 58 -46 l18 -45 -34 -39 c-33 -38 -101 -120
-401 -480 l-161 -194 -67 71 c-115 123 -195 260 -242 412 -40 131 -60 255 -52
328 l7 63 116 -6 c65 -4 119 -9 123 -10z m1289 -115 c118 -11 298 -27 399 -35
102 -9 187 -18 190 -20 5 -6 -10 -84 -37 -185 -21 -78 -95 -232 -149 -311 -42
-61 -122 -148 -182 -198 l-48 -40 -264 361 c-145 199 -267 367 -272 374 -4 7
0 29 10 49 l17 36 61 -5 c33 -3 157 -15 275 -26z m-232 -307 c95 -131 217
-298 270 -372 l95 -133 -24 -19 c-51 -40 -213 -111 -306 -135 -188 -49 -428
-42 -606 17 -112 37 -327 156 -327 180 0 10 172 218 345 419 50 58 123 146
163 195 l72 91 72 -3 72 -2 174 -238z"/>
<path d="M10575 4218 c-2 -7 -11 -141 -19 -298 -9 -157 -19 -322 -23 -367 l-6
-83 -148 0 -147 0 -6 28 c-3 15 -21 133 -41 262 -51 335 -59 387 -63 370 -1
-9 20 -165 48 -347 27 -183 50 -356 50 -385 0 -29 4 -57 8 -63 4 -5 28 -20 54
-32 25 -12 58 -38 73 -58 38 -49 26 -54 -13 -6 -46 57 -124 85 -201 71 -31 -5
-85 -24 -121 -42 -51 -26 -72 -44 -102 -88 -21 -31 -38 -70 -40 -90 l-3 -35
591 -3 591 -2 6 292 c3 161 11 347 16 413 15 181 24 371 17 365 -3 -3 -12
-118 -20 -255 -9 -138 -18 -283 -22 -322 l-6 -73 -148 0 -147 0 -21 133 c-12
72 -38 245 -59 382 -21 138 -39 242 -41 233 -3 -17 11 -116 89 -618 10 -66 28
-231 29 -261 0 -10 12 -19 31 -23 33 -6 119 -83 119 -106 0 -7 -18 8 -40 33
-69 79 -165 93 -284 43 l-36 -15 0 87 c0 48 7 209 16 357 8 149 18 325 22 393
7 116 6 137 -3 110z"/>
<path d="M7275 3587 c-6 -41 -5 -44 49 -98 36 -38 61 -75 73 -108 10 -28 21
-51 25 -51 5 0 27 -17 49 -37 l42 -38 -8 55 c-13 99 -55 181 -127 251 -23 22
-54 47 -69 55 l-28 14 -6 -43z"/>
<path d="M6173 3321 c-34 -10 -87 -33 -119 -52 -261 -157 -267 -543 -11 -710
83 -54 153 -72 259 -67 75 4 96 9 161 41 129 64 206 171 231 320 l12 72 47 8
c42 8 50 6 105 -28 77 -47 139 -65 227 -65 128 0 249 57 325 152 22 28 40 54
40 58 0 4 35 13 78 20 153 24 172 35 172 93 0 44 -31 60 -102 52 -61 -6 -180
-25 -283 -46 -97 -19 -618 -109 -629 -109 -6 1 -21 22 -33 48 -77 162 -305
263 -480 213z m177 -95 c0 -16 -55 -185 -70 -218 -20 -42 -44 -44 -99 -9 -26
17 -50 31 -54 31 -3 0 -33 16 -67 37 l-61 36 38 39 c69 72 173 109 276 99 20
-2 37 -8 37 -15z m111 -38 c52 -37 89 -79 106 -119 7 -16 11 -29 9 -29 -1 0
-52 -9 -112 -20 -60 -11 -112 -20 -116 -20 -19 0 -1 79 47 208 7 18 18 15 66
-20z m-436 -158 c17 -12 65 -39 108 -61 42 -23 77 -45 77 -50 0 -4 -39 -20
-87 -34 -49 -15 -106 -33 -128 -40 -38 -12 -40 -12 -48 8 -19 47 13 197 41
197 4 0 21 -9 37 -20z m1285 -8 c0 -27 -94 -76 -174 -91 -54 -10 -100 -6 -170
15 -36 12 2 25 155 53 173 33 189 35 189 23z m-700 -140 c0 -36 -29 -122 -41
-122 -15 0 -180 105 -171 108 8 2 185 38 205 41 4 1 7 -12 7 -27z m-380 -28
c0 -15 -69 -245 -75 -252 -6 -7 -65 29 -101 60 -41 36 -87 104 -82 120 3 9
222 85 251 87 4 1 7 -6 7 -15z m210 -72 c58 -36 106 -66 108 -67 1 -1 -15 -19
-35 -39 -69 -69 -184 -111 -271 -99 -23 3 -42 8 -42 11 0 3 16 58 36 121 35
114 62 159 88 144 6 -4 58 -36 116 -71z"/>
<path d="M6905 2453 c-11 -3 -34 -16 -52 -29 -46 -35 -51 -75 -19 -156 14 -35
26 -70 26 -78 0 -15 -59 -10 -165 15 -38 9 -116 19 -172 22 -122 7 -154 -3
-189 -59 -24 -38 -25 -38 -87 -38 -34 0 -109 7 -167 15 -143 20 -349 19 -425
0 -58 -16 -155 -69 -155 -85 0 -5 23 7 51 25 27 19 67 39 87 46 66 20 266 22
414 5 196 -24 259 -23 278 4 55 78 47 75 172 74 78 -1 140 -8 201 -23 48 -11
106 -21 127 -21 35 0 40 3 40 24 0 13 -9 45 -21 71 -40 91 -18 154 62 175 43
12 88 0 166 -45 57 -33 231 -206 288 -288 22 -31 44 -57 48 -57 13 0 -51 85
-134 179 -147 165 -284 248 -374 224z"/>
</g>
</svg>
