<?xml version="1.0" standalone="no"?>
<!DOCTYPE svg PUBLIC "-//W3C//DTD SVG 20010904//EN"
 "http://www.w3.org/TR/2001/REC-SVG-20010904/DTD/svg10.dtd">
<svg version="1.0" xmlns="http://www.w3.org/2000/svg"
 width="1300.000000pt" height="1040.000000pt" viewBox="0 0 1300.000000 1040.000000"
 preserveAspectRatio="xMidYMid meet">
<metadata>
Created by potrace 1.16, written by Peter Selinger 2001-2019
</metadata>
<g transform="translate(0.000000,1040.000000) scale(0.100000,-0.100000)"
fill="#000000" stroke="none">
<path d="M2070 9804 c-42 -14 -110 -49 -110 -56 0 -5 -8 -7 -18 -4 -12 4 -30
-6 -55 -29 -54 -51 -64 -109 -27 -150 14 -15 21 -42 25 -100 10 -129 42 -268
65 -284 11 -7 20 -22 20 -31 0 -14 13 -21 50 -29 28 -6 61 -11 74 -11 34 0
116 39 123 58 3 9 12 24 18 32 24 29 55 156 61 250 4 52 11 101 16 107 6 8 7
29 3 50 -4 21 -9 53 -10 71 -4 39 -30 82 -49 82 -8 0 -16 4 -18 10 -1 5 -31
13 -65 16 -35 4 -63 11 -63 15 0 10 -16 10 -40 3z m123 -225 c21 -12 34 -22
62 -47 8 -7 15 -23 15 -35 0 -35 -62 -197 -75 -197 -3 0 -11 13 -20 30 -18 35
-48 45 -111 35 -34 -5 -48 -12 -56 -31 -6 -13 -14 -24 -17 -24 -9 0 -55 81
-67 120 -10 30 -9 38 6 55 10 11 22 36 27 55 9 34 11 35 64 41 94 10 150 9
172 -2z"/>
<path d="M8255 9705 c-33 -8 -74 -14 -91 -14 -43 -1 -57 -21 -46 -63 5 -20 5
-46 -1 -66 -7 -22 -7 -52 1 -96 7 -35 12 -90 12 -123 0 -49 3 -59 18 -60 13
-1 17 7 19 40 1 24 15 69 31 103 l31 60 74 18 c67 15 80 16 137 3 34 -8 66
-21 71 -28 4 -7 6 -48 5 -90 -3 -74 2 -89 30 -89 2 0 4 27 4 60 0 33 4 60 8
60 13 0 32 47 32 79 0 36 -29 121 -49 145 -25 28 -67 47 -134 57 -34 5 -69 11
-77 13 -8 2 -42 -2 -75 -9z"/>
<path d="M5115 9131 c-97 -45 -125 -105 -133 -278 -6 -138 -4 -143 56 -143 56
0 72 15 71 64 -1 23 1 48 5 54 12 19 50 14 64 -9 16 -26 87 -58 128 -59 25 0
45 12 95 61 l64 61 10 -26 c9 -21 14 -24 24 -13 11 10 13 8 8 -11 -3 -12 -1
-20 3 -17 5 3 8 48 8 100 l0 95 -46 46 c-54 53 -83 67 -173 83 -91 15 -138 14
-184 -8z"/>
<path d="M2215 9104 c-36 -47 -101 -77 -141 -65 -33 10 -101 46 -125 67 -14
13 -29 6 -129 -61 -62 -41 -118 -75 -124 -75 -15 0 -106 -48 -128 -67 -10 -9
-22 -32 -29 -52 -6 -20 -24 -56 -39 -81 -36 -60 -54 -118 -89 -280 -17 -78
-42 -164 -60 -201 -17 -36 -31 -75 -31 -87 0 -25 25 -52 49 -52 39 0 125 -33
146 -56 18 -19 29 -23 49 -18 38 9 51 32 52 93 2 95 32 132 80 96 10 -8 27
-15 38 -15 14 0 17 -6 13 -22 -2 -13 -23 -106 -46 -207 -51 -227 -67 -425 -35
-434 35 -10 344 -29 370 -23 15 4 31 20 41 41 9 19 19 35 22 35 4 0 18 -13 33
-29 45 -47 87 -52 235 -25 70 12 144 30 165 38 l36 15 -4 63 c-11 153 29 100
-417 546 -221 221 -400 402 -397 402 3 0 184 -179 402 -397 384 -384 398 -397
398 -363 -1 70 -21 195 -55 346 -4 17 1 23 23 27 15 3 36 8 47 11 17 5 26 -6
57 -69 33 -67 36 -79 26 -107 -10 -28 -9 -33 11 -49 21 -17 24 -17 38 -3 12
12 34 15 97 12 45 -2 88 -6 96 -8 25 -8 26 160 1 230 -11 30 -19 71 -19 90 1
37 -95 277 -180 450 -51 103 -45 97 -197 182 -49 27 -125 69 -167 94 -43 24
-79 44 -82 44 -2 0 -16 -16 -31 -36z"/>
<path d="M11020 9029 c-126 -34 -182 -81 -264 -217 -108 -184 -198 -307 -368
-509 -67 -79 -113 -146 -148 -213 -51 -99 -150 -355 -150 -387 0 -9 15 -33 33
-53 l32 -35 -36 33 -37 34 -15 -49 c-9 -26 -19 -69 -22 -94 -7 -45 -6 -47 23
-57 28 -9 33 -7 78 39 l48 48 -20 23 -19 23 23 -19 c22 -19 22 -19 45 0 l22
19 -19 -23 -20 -23 55 -57 54 -57 -58 55 -57 55 -48 -49 c-30 -31 -42 -50 -34
-53 45 -17 72 -121 72 -280 0 -142 15 -235 47 -303 25 -54 26 -60 28 -290 1
-129 8 -309 15 -400 9 -123 9 -190 1 -262 -6 -54 -11 -118 -11 -143 l0 -45 94
0 c51 0 121 3 155 6 57 6 63 9 76 38 8 18 14 24 14 14 2 -37 29 -48 114 -48
96 0 154 14 161 38 38 118 51 860 20 1134 -15 133 -14 278 2 361 6 27 6 27 90
27 83 0 84 0 90 28 4 15 22 85 40 157 23 91 30 133 22 142 -7 9 4 26 42 63 28
27 57 50 63 50 7 1 30 9 52 20 22 11 52 19 68 20 15 0 27 5 27 10 0 6 -34 53
-75 104 -41 51 -75 102 -75 113 0 22 54 261 105 465 20 77 34 142 32 145 -4 3
-68 -171 -176 -476 -22 -63 -43 -116 -46 -119 -10 -11 -65 52 -65 74 0 13 11
58 24 101 13 43 30 103 36 133 7 30 23 76 36 102 75 149 97 273 83 455 -4 60
-8 116 -8 126 -1 15 -13 17 -108 16 -60 0 -124 -5 -143 -10z m-64 -1310 c46
-33 84 -67 84 -76 0 -27 -110 -184 -136 -194 -34 -12 -174 -12 -174 1 0 28
124 330 135 330 4 0 45 -27 91 -61z"/>
<path d="M8490 8483 c0 -27 3 -72 7 -101 5 -49 9 -54 41 -67 47 -20 62 -19
103 9 26 18 35 31 33 48 -1 13 -3 53 -3 91 l-1 67 -90 0 -90 0 0 -47z"/>
<path d="M4410 7813 c-210 -58 -201 -54 -195 -82 3 -14 25 -163 50 -331 56
-376 50 -350 79 -350 30 0 220 76 224 90 4 11 -4 12 -113 15 -106 3 -105 2
-105 30 0 24 3 25 58 25 32 0 62 -3 66 -7 11 -11 66 -12 66 -2 0 5 -16 69 -35
141 -42 164 -50 222 -36 273 6 22 14 80 17 128 8 99 12 95 -76 70z"/>
<path d="M5446 7462 c-3 -3 -6 -18 -6 -34 l0 -28 104 0 c116 0 166 12 166 41
0 17 -9 19 -92 20 -51 0 -110 2 -130 4 -20 1 -39 0 -42 -3z"/>
<path d="M8355 7435 c-38 -7 -108 -23 -155 -35 -52 -13 -133 -23 -211 -27
l-127 -6 -6 -106 c-3 -58 -6 -198 -5 -310 0 -130 -4 -208 -10 -214 -15 -15
-14 -112 2 -124 6 -6 98 -13 204 -16 l192 -5 12 35 c6 20 13 68 15 107 3 63
62 327 76 341 10 10 59 -115 78 -201 13 -61 16 -94 9 -111 -8 -23 -5 -49 17
-124 4 -14 22 -16 112 -18 59 -1 135 -2 169 -4 45 -1 66 2 77 13 12 13 13 61
6 337 -5 177 -14 357 -20 400 l-12 78 -176 1 c-109 1 -204 -3 -247 -11z"/>
<path d="M5335 7265 c-76 -27 -105 -30 -105 -15 0 6 -73 10 -200 10 l-200 0 0
-30 c0 -16 3 -30 8 -30 4 -1 82 -1 173 -1 l167 -1 21 -141 c12 -78 26 -170 32
-204 l11 -63 99 0 c55 0 99 -4 99 -8 0 -23 -30 -32 -105 -32 -74 0 -83 2 -112
28 -28 25 -33 38 -53 152 -12 69 -26 146 -32 173 l-10 47 -149 0 -149 0 0 -63
c0 -37 -5 -68 -12 -76 -11 -10 -8 -16 11 -29 62 -44 93 -92 58 -92 -9 0 -11
-12 -9 -39 l4 -39 54 -7 c38 -4 54 -11 54 -21 0 -23 -16 -25 -185 -22 -146 3
-157 4 -129 17 30 14 30 14 15 47 -8 19 -20 34 -26 34 -17 -1 -91 -37 -132
-64 -33 -23 -48 -26 -120 -26 l-83 0 0 -27 c0 -15 11 -39 26 -54 l26 -27 -25
-34 c-48 -64 -86 -144 -113 -236 -24 -85 -26 -105 -22 -225 4 -109 9 -145 31
-209 74 -215 235 -376 440 -440 92 -29 243 -31 332 -4 147 44 279 143 365 274
27 42 50 82 50 89 0 7 9 13 20 13 11 0 20 -3 20 -7 0 -5 33 -6 72 -3 57 4 81
11 111 31 37 26 40 26 88 14 37 -10 68 -11 122 -4 80 11 122 35 121 69 -1 20
2 21 43 15 32 -5 51 -2 67 8 21 14 23 26 29 129 7 112 10 131 42 238 28 95 54
519 35 585 -24 87 -95 143 -230 181 -36 10 -85 31 -110 46 -39 25 -102 52
-167 72 -20 6 -23 4 -23 -19 0 -20 -4 -25 -17 -21 -10 3 -50 12 -89 20 -39 8
-91 22 -115 30 -52 19 -38 20 -124 -9z m-695 -785 c110 -159 129 -193 121
-209 -10 -19 -12 -19 -68 -1 -105 33 -368 122 -372 126 -2 2 14 41 37 86 42
85 117 186 139 187 7 1 71 -84 143 -189z m14 184 c13 -5 125 -272 142 -339 8
-31 -9 -33 -31 -2 -47 64 -218 314 -226 330 -9 15 -4 17 45 17 30 0 61 -3 70
-6z m255 -91 c-1 -112 -41 -246 -75 -251 -18 -3 -28 16 -82 160 -34 90 -62
166 -62 171 0 4 50 7 110 7 l110 0 -1 -87z m363 59 c9 -9 6 -18 -12 -37 -22
-23 -30 -26 -75 -21 l-50 5 42 -12 42 -12 -95 -97 c-53 -54 -97 -98 -100 -98
-5 0 -25 77 -35 143 -6 33 -7 80 -3 105 l7 45 134 -5 c82 -3 138 -9 145 -16z
m72 -102 c5 -5 17 -27 27 -49 l18 -40 -111 -56 c-60 -31 -108 -59 -105 -61 3
-3 50 18 106 45 55 28 105 51 109 51 5 0 14 -18 21 -41 10 -32 10 -44 0 -55
-7 -8 -8 -14 -3 -12 5 2 10 -1 12 -7 2 -6 -58 -19 -137 -31 -78 -12 -156 -25
-175 -28 -34 -6 -35 -5 -55 40 l-21 46 23 27 c12 15 58 64 102 110 l80 83 50
-7 c28 -3 54 -10 59 -15z m273 -117 c-3 -15 -1 -36 5 -46 10 -20 68 -336 68
-373 0 -15 -8 -24 -25 -28 -45 -12 -140 -17 -151 -9 -7 6 -7 47 1 143 6 74 8
137 4 140 -4 3 -14 40 -22 83 l-15 77 24 0 c22 0 23 -3 19 -47 -4 -35 -3 -42
4 -28 5 11 10 34 10 51 1 24 6 33 23 37 12 4 28 1 36 -6 13 -10 14 -8 8 11 -5
14 -3 22 4 22 8 0 10 -10 7 -27z m-1077 -106 c189 -61 195 -64 198 -92 3 -27
2 -28 -30 -22 -310 53 -404 70 -410 76 -3 3 -2 30 4 59 8 41 14 51 27 47 9 -2
104 -33 211 -68z m895 -66 c10 -58 -19 -261 -37 -261 -18 0 -132 59 -163 84
l-30 25 50 53 c74 78 101 111 88 107 -6 -2 -41 -38 -78 -79 -63 -70 -66 -77
-63 -117 2 -24 -1 -43 -5 -43 -5 0 -55 18 -111 40 -56 22 -108 40 -115 40 -9
0 -11 7 -6 23 3 12 11 41 16 64 l10 42 57 6 c60 7 227 31 302 45 77 14 78 13
85 -29z m-937 -26 c108 -20 207 -38 219 -41 20 -4 44 -48 32 -58 -2 -2 -93
-48 -202 -104 l-198 -101 -16 36 c-23 57 -43 162 -43 236 0 37 3 67 6 67 3 0
94 -16 202 -35z m272 -182 c-19 -21 -90 -101 -159 -177 l-125 -139 -43 48
c-42 49 -91 130 -83 138 3 3 95 50 204 104 194 97 201 100 219 82 20 -18 19
-19 -13 -56z m257 27 c43 -17 87 -35 98 -40 11 -5 31 -12 44 -16 13 -3 47 -20
74 -36 28 -16 68 -36 89 -45 21 -8 38 -18 38 -23 0 -30 -166 -230 -192 -230
-3 0 -17 17 -29 38 -13 20 -70 110 -126 200 -94 148 -110 182 -83 182 5 0 44
-14 87 -30z m-76 -60 c74 -114 209 -333 209 -340 0 -12 -93 -58 -150 -74 -69
-19 -186 -31 -193 -19 -3 4 -2 42 3 83 12 109 23 306 17 300 -3 -3 -10 -70
-16 -150 -6 -80 -14 -164 -17 -188 l-5 -44 -42 7 c-58 10 -149 49 -205 89 -26
18 -54 31 -62 29 -9 -3 -11 -1 -5 4 6 4 46 49 90 98 44 50 82 92 85 95 3 3 38
42 79 88 57 64 79 82 95 79 12 -3 32 -1 46 3 29 8 25 11 71 -60z"/>
<path d="M6055 5951 c-11 -5 -29 -18 -39 -30 -11 -11 -30 -21 -43 -21 -22 0
-24 -4 -21 -37 2 -33 0 -37 -27 -46 -17 -5 -40 -19 -53 -30 -24 -23 -86 -27
-105 -8 -6 6 -16 11 -22 11 -13 0 -55 -108 -55 -143 0 -15 -4 -27 -10 -27 -5
0 -10 10 -10 23 0 35 -38 87 -75 103 -19 8 -37 14 -39 14 -3 0 -3 -29 1 -65
l6 -65 -31 0 c-26 0 -31 4 -36 30 -3 17 -9 44 -12 62 l-6 32 -34 -36 c-60 -66
-58 -156 6 -220 32 -32 44 -38 81 -38 69 0 138 58 140 117 1 15 3 21 6 11 7
-25 28 -30 173 -39 74 -4 169 -11 210 -15 47 -4 103 -2 148 6 l73 12 -7 32
c-8 38 -31 66 -55 66 -10 0 -21 5 -24 10 -4 6 18 10 58 10 59 0 165 15 174 24
2 2 0 19 -5 37 -7 29 -19 39 -92 77 -88 45 -162 95 -194 131 -20 22 -47 26
-81 12z"/>
<path d="M1700 5840 c-13 -9 -10 -14 15 -35 17 -14 42 -25 58 -25 15 0 27 -4
27 -9 0 -5 -9 -7 -19 -4 -16 4 -19 1 -15 -19 5 -20 4 -21 -6 -5 -11 17 -53 23
-84 11 -15 -6 -15 -8 1 -20 10 -7 34 -14 53 -15 19 -1 27 -3 17 -6 -13 -3 -17
-11 -14 -24 6 -23 -9 -25 -21 -2 -7 12 -18 15 -47 10 -21 -3 -40 -9 -43 -12
-9 -8 31 -34 53 -35 24 0 52 -17 43 -25 -3 -4 -16 -2 -27 5 -21 11 -31 -3 -11
-15 6 -3 10 -12 10 -18 0 -7 -11 1 -25 16 -21 26 -29 28 -62 22 -63 -11 -103
-55 -103 -114 0 -21 7 -35 24 -46 33 -22 125 -30 170 -15 46 15 124 76 156
123 13 20 35 41 47 46 19 9 23 18 22 53 0 24 -6 59 -13 78 -11 31 -17 35 -48
35 -33 0 -68 22 -68 44 0 14 -70 14 -90 1z"/>
<path d="M1100 5591 c-19 -69 -20 -85 -9 -93 13 -9 110 -5 126 5 5 3 7 41 5
85 l-3 80 -49 4 -48 3 -22 -84z"/>
<path d="M3017 5599 c-4 -45 -4 -86 -1 -90 3 -5 36 -9 75 -9 75 0 75 0 60 60
-6 19 -15 54 -21 78 l-11 42 -48 0 -48 0 -6 -81z"/>
<path d="M10765 5673 c-11 -3 -24 -9 -29 -14 -13 -12 -66 -11 -66 1 0 18 -29
11 -40 -9 -9 -18 -12 -19 -38 -5 -32 17 -77 18 -120 3 -29 -10 -63 -5 -114 16
-23 9 -70 -83 -66 -128 l3 -32 85 -2 c47 -2 128 -7 180 -13 69 -8 109 -7 145
1 28 6 109 14 182 18 72 3 135 9 139 13 15 16 -15 56 -50 68 -20 6 -36 16 -36
21 0 5 -9 9 -20 9 -11 0 -20 5 -20 10 0 6 -6 10 -12 10 -7 0 -24 9 -38 20 -25
19 -45 22 -85 13z"/>
<path d="M7984 5598 c-3 -5 0 -15 6 -23 10 -12 9 -15 -4 -15 -9 0 -16 -3 -17
-7 0 -5 -2 -21 -4 -38 -3 -25 4 -39 41 -77 37 -40 51 -48 81 -48 l36 0 -7 53
c-13 95 -25 126 -51 133 -14 3 -25 10 -25 14 0 11 -50 19 -56 8z"/>
<path d="M8715 5551 c-3 -5 0 -13 5 -16 8 -5 5 -14 -6 -27 -17 -18 -19 -18
-26 -1 -4 10 -5 2 -2 -18 8 -51 -9 -80 -46 -77 -26 2 -70 -24 -70 -42 0 -11
471 -23 482 -12 6 6 5 25 -2 52 -10 36 -17 44 -56 62 -27 12 -64 19 -92 18
-67 -2 -70 -1 -42 16 24 14 23 15 -22 9 -51 -7 -69 10 -20 18 15 3 0 4 -33 4
-43 -1 -59 2 -57 11 2 14 -4 16 -13 3z"/>
<path d="M7765 5499 c-11 -6 -26 -19 -32 -27 -17 -21 -17 -81 0 -88 7 -2 71
-3 143 -2 l129 3 -38 39 c-21 21 -39 48 -41 60 -3 19 -10 21 -72 23 -38 2 -78
-2 -89 -8z"/>
<path d="M11078 4746 c-28 -27 -29 -27 -8 -3 13 15 20 27 16 27 -5 0 -142 -75
-173 -95 -2 -1 -6 -24 -9 -51 l-7 -49 39 35 39 35 -37 -40 -37 -40 29 -38 c16
-22 26 -45 24 -52 -17 -44 61 -83 188 -92 65 -5 82 -3 122 17 25 12 46 26 46
31 0 6 20 28 44 50 41 38 45 46 51 102 10 91 -2 112 -80 148 -41 18 -92 32
-140 37 -74 8 -74 8 -107 -22z"/>
<path d="M8945 4629 c5 -7 -12 -8 -54 -3 -43 5 -61 3 -61 -5 0 -6 -12 -11 -27
-11 -51 0 -102 -20 -138 -55 -19 -19 -42 -35 -50 -35 -20 0 -19 -16 2 -24 12
-5 14 -9 5 -18 -7 -7 -12 -21 -12 -31 0 -11 -11 -28 -25 -39 -23 -18 -36 -46
-16 -33 16 9 24 -15 10 -31 -9 -11 -8 -18 5 -32 9 -10 16 -32 16 -48 0 -16 9
-44 20 -62 11 -18 20 -48 20 -67 0 -30 3 -35 24 -35 14 0 30 10 40 24 8 14 25
27 36 31 15 5 20 15 20 44 0 35 2 38 50 55 27 10 54 15 60 11 5 -3 10 -23 10
-44 0 -51 18 -74 52 -66 22 6 27 13 30 43 2 29 8 37 28 42 17 4 28 16 34 37
10 32 34 43 97 43 58 0 76 106 35 204 -23 56 -113 144 -92 91 7 -20 -2 -19
-49 5 -42 22 -80 27 -70 9z"/>
<path d="M10795 4129 l-150 -46 1 -44 c1 -24 11 -80 24 -124 18 -67 23 -119
30 -325 4 -135 15 -305 25 -378 l17 -132 -27 -88 c-33 -102 -36 -168 -11 -206
16 -26 16 -36 -3 -234 -12 -128 -24 -363 -31 -612 -6 -223 -15 -467 -20 -542
-9 -128 -7 -209 16 -505 l7 -82 54 -7 55 -7 97 94 96 94 -90 -93 -90 -92 62 0
c101 0 109 6 117 92 35 372 121 956 155 1054 11 29 24 95 31 146 19 153 20
154 47 43 14 -55 36 -145 50 -200 14 -55 26 -118 27 -140 2 -22 8 -50 14 -62
7 -12 12 -61 12 -110 0 -124 28 -408 55 -553 8 -41 17 -102 20 -135 3 -33 8
-75 11 -92 l5 -33 139 0 140 0 0 103 c1 56 5 185 10 287 20 368 22 665 5 840
-8 91 -18 197 -20 235 -3 39 -14 151 -26 250 -12 107 -20 233 -19 310 1 72 -1
213 -5 315 -6 147 -4 213 10 317 16 129 16 133 -4 205 -29 102 -27 166 9 278
16 52 30 102 30 111 0 12 -37 30 -132 66 l-133 50 -9 -31 c-26 -96 -120 -267
-137 -249 -4 4 -9 19 -11 33 -3 24 -7 25 -65 25 -59 1 -63 -1 -74 -27 -6 -15
-13 -28 -16 -28 -2 0 -15 12 -28 28 -49 55 -90 127 -105 186 l-15 61 -150 -46z"/>
<path d="M8505 3996 c-92 -53 -167 -134 -190 -206 -4 -14 -18 -47 -31 -75 -50
-111 -80 -275 -93 -524 -10 -164 -10 -164 -44 -215 -38 -57 -56 -90 -83 -154
-17 -41 -34 -59 -166 -182 -65 -59 -78 -85 -54 -108 13 -13 38 -15 141 -14
137 3 134 4 114 -58 -6 -20 -11 -98 -10 -179 1 -136 0 -146 -23 -186 -14 -23
-45 -60 -70 -82 -28 -25 -46 -50 -46 -63 0 -11 -7 -35 -16 -51 -23 -45 -13
-59 44 -59 27 0 70 -6 96 -14 38 -12 45 -12 36 -1 -8 9 -8 15 0 20 17 11 32
-6 27 -32 -4 -21 3 -28 57 -56 54 -28 70 -31 136 -30 43 0 109 11 155 24 44
12 98 23 120 23 22 1 67 11 100 23 33 12 105 35 160 52 55 16 108 36 118 43
21 16 20 18 -118 258 -79 136 -136 272 -155 363 -11 56 -11 60 14 96 18 25 41
94 71 212 25 96 45 175 45 177 0 1 -39 2 -87 2 -107 0 -163 21 -182 69 -8 17
-17 31 -20 31 -12 0 -51 76 -71 137 -10 32 -23 94 -30 138 -6 44 -17 110 -25
147 -28 125 -18 206 34 280 31 44 58 58 110 58 162 0 278 -207 287 -510 4
-114 5 -125 24 -132 25 -9 32 7 50 111 16 97 7 195 -33 346 l-32 120 -36 -3
c-30 -3 -43 3 -85 41 -27 25 -71 79 -99 121 -27 41 -57 75 -65 76 -8 0 -42
-16 -75 -34z"/>
<path d="M2900 3962 c-25 -29 -53 -62 -62 -72 -16 -18 -16 -20 3 -42 14 -16
22 -19 25 -10 3 6 10 12 16 12 6 0 6 -6 -2 -15 -6 -8 -8 -20 -4 -27 4 -7 -7 0
-24 16 -18 16 -34 28 -36 25 -10 -10 -76 -128 -76 -135 0 -5 24 14 53 41 28
28 -50 -54 -174 -180 l-227 -230 -6 -80 c-12 -137 -38 -201 -173 -413 -68
-107 -123 -196 -123 -198 0 -2 32 -25 70 -51 61 -40 73 -44 84 -32 34 37 268
332 273 345 10 27 31 14 36 -23 8 -66 -12 -152 -83 -365 -38 -113 -72 -226
-76 -250 -4 -24 -14 -50 -24 -58 -10 -8 -116 -95 -236 -192 -220 -178 -329
-267 -505 -410 -53 -43 -120 -89 -151 -102 -53 -24 -57 -28 -107 -122 -74
-137 -145 -240 -213 -304 -56 -54 -58 -57 -40 -73 10 -9 23 -17 29 -17 15 0
117 113 160 179 l36 53 45 -6 c55 -7 119 -47 132 -82 6 -14 10 -99 10 -190 l0
-164 30 0 30 0 0 89 c0 185 -25 511 -45 592 -6 23 5 35 122 129 70 57 195 158
277 224 81 67 214 174 295 239 l146 118 17 -143 c27 -238 35 -274 66 -288 15
-7 72 -15 128 -18 l101 -4 13 -37 c15 -44 100 -181 112 -181 5 0 0 12 -10 28
-68 99 -109 178 -99 189 5 4 157 -16 282 -37 95 -16 193 -12 264 10 95 30 112
52 72 94 -11 12 -29 57 -41 101 -12 44 -39 137 -60 206 -57 186 -71 266 -79
454 -7 158 -10 174 -35 224 l-28 54 -21 -34 c-11 -19 -26 -44 -34 -56 -38 -64
-107 -67 -157 -6 -27 32 -28 36 -12 45 12 7 16 17 12 32 -5 19 1 24 32 35 20
7 54 24 74 37 44 28 50 29 94 8 25 -12 33 -21 29 -34 -4 -11 3 -20 20 -28 23
-11 27 -8 60 41 19 28 35 60 35 71 0 16 32 55 180 222 56 63 101 134 107 167
3 21 -2 56 -11 85 -29 85 -234 371 -347 484 -73 72 -105 93 -165 106 -38 8
-40 8 -84 -46z m338 -590 c2 -22 -10 -56 -40 -114 l-43 -83 -6 60 c-4 33 -7
100 -8 148 l-1 89 48 -34 c37 -27 48 -41 50 -66z"/>
<path d="M2619 3846 c-58 -44 -122 -127 -155 -201 -24 -56 -64 -214 -64 -260
0 -14 51 31 170 150 93 93 167 171 165 173 -2 2 -14 -5 -26 -17 -23 -21 -59
-20 -86 2 -19 14 -16 32 21 113 19 41 31 74 27 74 -5 0 -28 -15 -52 -34z"/>
<path d="M4693 3819 c-32 -33 -6 -69 48 -69 34 0 38 -3 41 -27 3 -25 8 -28 42
-31 l39 -3 -6 57 c-3 31 -11 62 -16 67 -17 17 -134 21 -148 6z"/>
<path d="M6287 3818 c-14 -11 -37 -93 -37 -133 0 -8 15 -13 40 -13 37 -1 40 1
40 28 0 35 23 60 49 53 25 -6 61 13 61 34 0 9 -8 22 -17 29 -23 17 -114 18
-136 2z"/>
<path d="M5194 3616 c-101 -37 -193 -93 -224 -137 -53 -74 -109 -253 -131
-419 -6 -47 -27 -134 -46 -195 -46 -146 -45 -182 3 -292 l25 -55 -21 -54 c-27
-75 -26 -92 8 -99 70 -15 72 -15 72 -1 0 26 20 28 39 5 10 -13 26 -46 35 -74
18 -57 53 -101 91 -115 30 -11 32 -1 5 33 -27 35 -25 48 13 85 41 40 67 41 89
2 10 -17 25 -33 35 -36 10 -3 45 -17 78 -30 62 -25 105 -70 105 -110 0 -16 -5
-14 -31 13 -18 20 -40 33 -54 33 -23 0 -23 -2 -13 -32 6 -18 31 -67 55 -109
46 -81 52 -104 28 -113 -8 -3 -12 -12 -9 -21 9 -21 -6 -19 -33 7 -20 18 -23
19 -23 5 0 -24 -15 -21 -33 6 -13 18 -18 20 -26 8 -8 -12 -17 -7 -50 26 -23
22 -41 47 -41 55 0 8 -5 19 -11 25 -6 6 -18 36 -28 68 -10 32 -21 53 -25 47
-12 -20 -18 -101 -12 -155 6 -43 12 -56 27 -60 13 -4 19 0 19 11 0 15 2 15 10
2 11 -17 -6 -31 -28 -22 -12 4 -14 1 -8 -14 8 -22 44 -231 48 -284 3 -32 6
-35 43 -41 22 -4 107 -4 190 0 l149 6 8 45 c5 25 15 94 22 153 9 68 22 119 33
135 10 15 23 41 29 57 l12 30 12 -30 c33 -81 59 -169 75 -253 10 -51 25 -100
33 -109 13 -13 36 -14 146 -8 200 10 186 2 186 94 0 43 5 115 11 160 12 92 -5
279 -22 233 -5 -13 -23 -44 -41 -70 -58 -84 -78 -100 -78 -64 -1 13 -5 11 -21
-10 -23 -32 -39 -36 -39 -11 0 14 -3 13 -21 -5 -27 -30 -43 -18 -24 18 21 40
19 47 -5 20 -43 -49 -33 -4 23 103 32 62 58 115 57 120 -1 18 -48 4 -73 -23
-35 -37 -54 -30 -30 11 27 45 51 64 118 89 33 13 76 39 95 56 34 32 36 33 67
18 17 -9 39 -24 48 -34 16 -18 16 -21 -4 -53 -37 -59 -22 -65 31 -11 37 36 42
50 74 202 10 46 21 85 25 87 4 3 22 -39 42 -92 l34 -97 44 3 c24 1 48 5 52 8
13 8 1 51 -40 151 l-38 93 -37 -4 c-21 -2 -39 -2 -42 0 -2 2 0 21 5 41 38 158
32 224 -41 447 -27 83 -62 204 -79 269 -17 66 -39 133 -49 150 -21 36 -75 65
-191 103 -81 25 -85 26 -95 8 -30 -50 -76 -103 -114 -129 -58 -41 -153 -48
-227 -16 -72 31 -130 82 -151 135 -11 26 -25 45 -34 44 -8 0 -56 -15 -106 -33z
m764 -718 c6 -18 8 -35 4 -39 -13 -11 -254 -40 -402 -47 -147 -7 -435 -1 -445
10 -4 3 -3 20 2 37 l8 30 300 5 c187 3 332 10 385 19 131 22 134 22 148 -15z
m50 -101 c6 -6 13 -23 17 -37 5 -20 2 -26 -12 -26 -10 -1 -94 -11 -188 -24
-141 -19 -216 -24 -445 -24 l-275 -1 -3 23 c-2 12 -12 27 -23 32 -10 6 -19 14
-19 18 0 4 100 6 222 4 211 -3 492 14 610 37 65 13 104 12 116 -2z"/>
<path d="M1963 2532 c-28 -10 -61 -26 -72 -36 -21 -19 -683 -928 -689 -946 -2
-6 6 -10 17 -10 23 0 17 -7 271 345 96 132 199 274 229 316 31 42 88 120 126
173 55 76 83 105 128 133 52 32 61 34 83 23 13 -7 21 -17 18 -22 -3 -4 9 -11
26 -14 21 -5 29 -11 26 -21 -3 -7 -1 -21 4 -31 5 -9 13 -33 18 -52 6 -26 14
-36 31 -38 17 -3 22 0 19 10 -3 7 -12 38 -21 68 -31 105 -102 139 -214 102z"/>
<path d="M4695 2031 c-3 -6 -6 -339 -6 -742 0 -592 2 -734 13 -740 20 -13 92
-11 106 3 17 17 17 1459 0 1476 -14 14 -104 16 -113 3z"/>
<path d="M6392 2028 c-9 -9 -12 -175 -12 -685 l0 -673 25 0 c24 0 25 -2 25
-65 l0 -65 33 0 c18 0 38 5 45 12 9 9 12 186 12 734 0 397 -3 729 -6 738 -8
20 -103 23 -122 4z"/>
<path d="M7967 1524 c-126 -120 -259 -227 -357 -290 -41 -26 -78 -52 -82 -58
-4 -6 -8 -8 -8 -4 0 7 -77 -28 -230 -105 -24 -12 -55 -38 -68 -57 -22 -32 -24
-42 -18 -118 4 -73 11 -96 51 -179 39 -80 61 -110 134 -184 67 -68 103 -96
156 -121 116 -54 227 -44 269 26 16 26 -18 49 -128 86 -51 17 -113 43 -137 59
-92 58 -182 189 -217 316 -18 64 -18 73 -4 102 9 18 24 35 34 39 10 3 33 17
51 32 17 15 26 19 18 9 -13 -16 -11 -16 25 -1 77 32 220 107 279 147 33 22 91
72 128 111 54 56 70 68 77 56 18 -31 143 -185 157 -193 17 -10 132 8 181 29
81 34 241 173 257 224 8 26 18 18 -130 107 l-109 65 -34 -38 c-97 -112 -102
-116 -133 -110 -16 3 -41 13 -55 23 l-26 17 31 25 c17 14 31 33 31 42 0 16
-19 39 -32 39 -5 0 -54 -43 -111 -96z"/>
<path d="M3370 1132 c0 -4 -13 -15 -29 -25 -29 -17 -49 -57 -28 -57 7 0 -3 -9
-20 -20 -33 -20 -42 -43 -22 -56 6 -3 16 -1 22 5 6 6 18 11 27 11 8 -1 3 -7
-13 -16 -38 -20 -32 -50 8 -47 l30 2 -27 -12 c-16 -6 -28 -19 -28 -29 0 -14 9
-18 38 -20 37 -1 37 -1 -8 -7 -33 -4 -46 -11 -48 -25 -2 -10 0 -16 6 -12 6 3
21 2 34 -4 19 -8 15 -9 -20 -5 -39 4 -44 2 -62 -28 -35 -56 -21 -137 22 -137
12 0 38 15 58 33 l35 32 -29 -32 c-29 -32 -29 -33 -7 -33 51 0 103 45 141 119
19 38 21 50 11 80 -12 40 -8 49 14 31 13 -11 18 -10 30 6 34 44 30 63 -22 117
-27 29 -61 71 -76 95 -26 41 -37 51 -37 34z"/>
<path d="M855 1051 c-33 -17 -290 -362 -290 -390 0 -42 38 -3 147 149 168 234
180 251 176 254 -1 1 -16 -5 -33 -13z"/>
<path d="M4937 903 c-4 -3 -7 -58 -7 -120 l0 -114 51 3 52 3 -2 109 c-1 61 -4
113 -7 118 -6 10 -78 11 -87 1z"/>
<path d="M6230 890 c-6 -12 -10 -61 -8 -118 l3 -97 53 -3 52 -3 0 105 c0 57
-3 111 -6 120 -9 25 -80 22 -94 -4z"/>
<path d="M11466 754 c-22 -22 -38 -49 -41 -72 -4 -20 -11 -50 -16 -66 -5 -18
-6 -33 0 -39 17 -17 88 -27 203 -27 l117 0 -6 -34 c-4 -25 -1 -35 11 -39 35
-14 46 2 45 67 -1 38 -4 52 -8 36 -3 -14 -12 -26 -19 -28 -10 -2 -12 11 -9 52
3 30 8 60 12 66 3 6 3 10 -2 9 -4 -1 -45 -1 -91 0 -100 1 -104 21 -4 21 53 1
63 3 48 12 -11 6 -47 8 -88 6 -42 -4 -66 -2 -60 4 5 5 34 10 65 11 32 1 57 5
57 9 0 12 -75 18 -110 8 -48 -14 -59 -12 -36 5 12 9 42 15 73 15 29 0 53 5 53
10 0 6 -33 10 -79 10 -77 0 -80 -1 -115 -36z"/>
<path d="M10728 762 c-39 -8 -15 -22 36 -22 56 0 86 -7 86 -19 0 -4 -22 -3
-48 2 -27 6 -61 7 -78 2 -31 -9 -27 -10 49 -20 70 -9 57 -22 -19 -17 -41 3
-70 0 -77 -7 -8 -8 5 -11 51 -11 34 0 62 -4 62 -8 0 -4 -31 -8 -69 -8 l-69 0
-53 -52 c-42 -42 -50 -55 -41 -65 18 -17 282 -23 357 -7 l57 12 -7 36 c-4 21
-10 55 -14 78 -10 57 -61 103 -116 105 -22 0 -51 1 -65 2 -14 2 -33 1 -42 -1z"/>
<path d="M9449 710 c-53 -21 -136 -38 -224 -44 -33 -2 -74 -11 -92 -20 -17 -9
-52 -18 -77 -19 -42 -2 -46 -4 -46 -29 0 -17 6 -28 18 -30 21 -5 109 19 139
38 12 8 46 14 76 14 86 0 277 66 277 96 0 18 -15 17 -71 -6z"/>
</g>
</svg>
